<?xml version="1.0" standalone="no"?>
<!DOCTYPE svg PUBLIC "-//W3C//DTD SVG 20010904//EN"
 "http://www.w3.org/TR/2001/REC-SVG-20010904/DTD/svg10.dtd">
<svg version="1.0" xmlns="http://www.w3.org/2000/svg"
 width="300.000000pt" height="109.000000pt" viewBox="0 0 300.000000 109.000000"
 preserveAspectRatio="xMidYMid meet">

<g transform="translate(0.000000,109.000000) scale(0.100000,-0.100000)"
fill="#000000" stroke="none">
<path d="M130 1068 c-49 -25 -90 -77 -90 -114 0 -13 -4 -24 -9 -24 -36 0 -43
-239 -9 -277 27 -30 25 -165 -2 -200 -17 -22 -20 -41 -20 -128 0 -84 3 -107
18 -126 11 -13 22 -36 25 -51 9 -34 51 -85 88 -104 16 -8 29 -21 29 -29 0 -12
22 -15 125 -15 104 0 125 2 125 15 0 13 24 15 155 15 131 0 155 -2 155 -15 0
-13 21 -15 125 -15 103 0 125 3 125 15 0 8 13 21 29 29 39 21 78 69 91 114 16
59 13 767 -4 815 -18 50 -42 76 -91 98 -37 17 -73 19 -430 19 -386 0 -391 0
-435 -22z m849 -63 c50 -26 52 -39 49 -464 l-3 -393 -28 -24 -28 -24 -400 0
c-256 0 -407 4 -420 10 -10 6 -25 23 -33 38 -13 24 -12 30 5 51 16 19 19 40
19 126 0 87 -3 106 -20 128 -29 36 -29 168 0 204 17 22 20 41 20 133 0 90 -3
111 -19 131 -16 21 -17 28 -6 48 26 49 33 50 448 51 320 0 393 -3 416 -15z
m-894 -216 c0 -86 -3 -104 -15 -104 -12 0 -16 18 -18 94 -3 102 1 125 21 118
8 -2 12 -33 12 -108z m3 -462 c3 -102 2 -107 -18 -107 -19 0 -20 6 -20 103 0
57 3 107 7 111 20 20 28 -9 31 -107z"/>
<path d="M355 734 c-64 -23 -95 -60 -119 -141 -6 -17 -2 -22 16 -26 l23 -4
-23 -2 c-19 -1 -21 -5 -16 -28 17 -74 77 -136 143 -149 23 -5 30 -2 34 12 4
17 5 17 6 2 2 -40 102 -2 146 56 35 46 44 102 19 109 -17 4 -17 5 -1 6 23 1
22 25 -5 78 -23 46 -74 84 -130 97 -22 5 -27 2 -31 -16 l-4 -23 -2 23 c-1 25
-3 26 -56 6z m118 -104 c50 -39 42 -117 -15 -146 -60 -31 -128 13 -128 83 0
71 85 109 143 63z"/>
<path d="M751 604 c-25 -31 -26 -53 -6 -80 13 -18 14 -17 15 18 0 27 6 40 20
48 22 12 60 5 60 -11 0 -5 -9 -4 -19 3 -15 9 -23 9 -35 -1 -13 -11 -16 -36
-16 -130 0 -78 4 -121 12 -129 16 -16 23 -15 42 4 12 11 16 36 16 96 0 64 3
83 17 93 22 16 21 70 -2 95 -27 30 -78 27 -104 -6z"/>
<path d="M1405 933 c-66 -35 -114 -104 -115 -167 0 -22 -4 -27 -17 -22 -9 4
-20 1 -25 -6 -13 -21 -9 -28 17 -28 l25 0 0 -117 c0 -140 -4 -159 -36 -167
-53 -14 -21 -26 66 -26 92 0 113 10 60 29 l-30 10 0 135 0 136 39 0 c22 0 44
6 51 15 11 13 6 15 -39 15 l-51 0 0 41 c0 55 26 108 57 115 13 4 40 4 58 1 41
-7 49 2 29 31 -18 26 -47 27 -89 5z"/>
<path d="M2619 930 c-63 -33 -109 -106 -109 -174 0 -11 -5 -16 -14 -13 -14 5
-36 -10 -36 -25 0 -4 11 -8 25 -8 l25 0 0 -136 0 -136 -30 -11 c-51 -19 -34
-27 60 -27 92 0 113 10 60 29 l-30 10 0 135 0 136 39 0 c22 0 44 6 51 15 11
13 5 15 -40 15 l-53 0 5 51 c3 29 14 62 25 77 18 24 27 27 77 26 58 -1 67 6
42 39 -17 22 -52 21 -97 -3z"/>
<path d="M1560 728 c-53 -28 -70 -51 -54 -75 19 -30 39 -26 49 9 12 40 51 58
90 40 22 -10 25 -18 25 -62 0 -47 -1 -50 -26 -50 -73 0 -147 -44 -160 -94 -22
-90 71 -131 162 -71 22 14 25 13 47 -9 26 -26 66 -26 88 0 11 14 12 14 -35 28
-11 4 -15 34 -18 136 -3 124 -4 133 -27 151 -31 26 -87 24 -141 -3z m110 -213
c0 -42 -3 -47 -34 -62 -61 -28 -105 0 -85 55 9 24 59 51 97 52 20 0 22 -5 22
-45z"/>
<path d="M1893 740 c-34 -14 -55 -53 -51 -96 3 -39 26 -62 120 -119 42 -26 49
-66 16 -89 -45 -32 -93 -13 -114 45 l-12 34 -11 -28 c-21 -53 -15 -75 22 -81
90 -15 130 -11 166 20 25 21 31 33 31 65 0 45 -19 68 -82 100 -61 30 -78 48
-78 81 0 59 90 63 118 4 17 -35 32 -22 25 22 -4 24 -13 36 -30 43 -30 11 -91
11 -120 -1z"/>
<path d="M2205 736 c-16 -7 -41 -25 -54 -40 -24 -25 -24 -26 -6 -46 24 -27 45
-25 45 3 0 49 70 76 105 41 11 -11 15 -30 13 -58 -3 -40 -4 -41 -48 -48 -63
-11 -98 -27 -120 -56 -26 -33 -26 -93 0 -117 27 -24 92 -22 135 5 32 20 36 20
41 5 9 -24 44 -34 76 -23 34 12 37 35 6 40 -22 3 -23 9 -33 141 -9 119 -13
141 -29 153 -25 18 -91 18 -131 0z m105 -221 c0 -39 -4 -46 -30 -60 -55 -28
-100 -15 -100 30 0 35 54 73 108 74 20 1 22 -4 22 -44z"/>
<path d="M2805 736 c-92 -40 -135 -196 -76 -276 45 -61 144 -81 216 -44 35 19
45 41 15 37 -8 -2 -34 -6 -57 -9 -80 -12 -133 32 -133 111 l0 35 103 0 c92 0
103 2 115 21 21 34 -6 102 -50 125 -34 17 -93 17 -133 0z m109 -48 c9 -12 16
-33 16 -45 0 -22 -3 -23 -79 -23 -74 0 -79 1 -74 20 16 62 106 93 137 48z"/>
</g>
</svg>
